<svg xmlns="http://www.w3.org/2000/svg" width="320" height="96">
    <path d="M10 23V9h2v14zm2-13s3-1 5 1 5 1 5 1v8s-3 1-5-1-5-1-5-1z" fill="#3f8d14"/>
    <path d="M42 9h4v14h-4zm7 0h4v14h-4z" fill="#ffdc00"/>
    <path d="M109 23h6l4-4v-6l-4-4h-6l-4 4v6z" fill="#e81817"/>
    <path d="M74 9l12 7-12 7z" fill="#ffdc00"/>
    <path d="M169 9h7v2h-5v10h10v-5h2v7h-14z"/>
    <path d="M175 15.5l4.5-4.5-2-2h5.5v5.5l-2-2-4.5 4.5H175zM151 9v5.5l-2-2-2.5 2.5-.656-.656L145 13.5l2.5-2.5-2-2zm-14 0h5.5l-2 2 2.5 2.5-1.5 1.5-2.5-2.5-2 2zm0 14v-5.5l2 2 2.5-2.5 1.5 1.5-2.5 2.5 2 2zm14 0h-5.5l2-2-2.5-2.5.656-.656.844-.844 2.5 2.5 2-2z"/>
    <path d="M10 55V41h2v14zm2-13s3-1 5 1 5 1 5 1v8s-3 1-5-1-5-1-5-1zm30-1h4v14h-4zm7 0h4v14h-4zm60 14h6l4-4v-6l-4-4h-6l-4 4v6zM74 41l12 7-12 7zm71 6v-5.5l2 2 2.5-2.5.656.656.844.844-2.5 2.5 2 2zm-2 0h-5.5l2-2-2.5-2.5 1.5-1.5 2.5 2.5 2-2zm0 2v5.5l-2-2-2.5 2.5-1.5-1.5 2.5-2.5-2-2zm2 0h5.5l-2 2 2.5 2.5-.656.656-.844.844-2.5-2.5-2 2z" fill="#fff"/>
    <path d="M186 48a10 10 0 1 1-20 0 10 10 0 1 1 20 0z" fill="#2eaedf"/>
    <path d="M170 49.5l4 4 7-7v-4l-7 7-2-2z" fill="#fff"/>
    <path style="text-indent:0;text-align:start;line-height:normal;text-transform:none;block-progression:tb;-inkscape-font-specification:Sans" d="M204 4s-5.056 12.797-6.25 15.623c-1.192 2.825.19 3.61 2.773 2.59C203.105 21.19 239 7 239 7V4l-38 15 6-15z" font-weight="400" color="#000" fill="#a0a0a0" overflow="visible" font-family="Sans"/>
    <path d="M201 19l6-15h32z" fill="#fff"/>
    <path style="text-indent:0;text-align:start;line-height:normal;text-transform:none;block-progression:tb;-inkscape-font-specification:Sans" d="M231 36s5.056 12.797 6.25 15.623c1.192 2.825-.19 3.61-2.773 2.59A287183.57 287183.57 0 0 0 196 39v-3l38 15-6-15z" font-weight="400" color="#000" fill="#a0a0a0" overflow="visible" font-family="Sans"/>
    <path d="M234 51l-6-15h-32z" fill="#fff"/>
    <path d="M271 17.5a4 2.5 0 1 1-8 0 4 2.5 0 1 1 8 0z" transform="matrix(.875 0 0 .80002 31.288 7.583)" fill="#fff" stroke="#a0a0a0" stroke-width="1.195"/>
    <path d="M271 17.5a4 2.5 0 1 1-8 0 4 2.5 0 1 1 8 0z" transform="matrix(1.04278 0 0 .82844 -6.704 3.052)" fill="#fff" stroke="#a0a0a0" stroke-width="1.461"/>
    <path d="M271 17.5a4 2.5 0 1 1-8 0 4 2.5 0 1 1 8 0z" transform="matrix(1.375 0 0 1.238 -89.625 -10.663)" fill="#fff" stroke="#a0a0a0" stroke-width="1.4"/>
    <path d="M271 17.5a4 2.5 0 1 1-8 0 4 2.5 0 1 1 8 0z" transform="matrix(-.875 0 0 .80002 532.712 39.584)" fill="#fff" stroke="#a0a0a0" stroke-width="1.195"/>
    <path d="M271 17.5a4 2.5 0 1 1-8 0 4 2.5 0 1 1 8 0z" transform="matrix(-1.04278 0 0 .82844 570.704 35.053)" fill="#fff" stroke="#a0a0a0" stroke-width="1.461"/>
    <path d="M271 17.5a4 2.5 0 1 1-8 0 4 2.5 0 1 1 8 0z" transform="matrix(-1.375 0 0 1.238 653.625 21.337)" fill="#fff" stroke="#a0a0a0" stroke-width="1.4"/>
    <path d="M151 73v5.5l-2-2-2.5 2.5-.656-.656L145 77.5l2.5-2.5-2-2zm-14 0h5.5l-2 2 2.5 2.5-1.5 1.5-2.5-2.5-2 2zm0 14v-5.5l2 2 2.5-2.5 1.5 1.5-2.5 2.5 2 2zm14 0h-5.5l2-2-2.5-2.5.656-.656.844-.844 2.5 2.5 2-2z" fill="#fff"/>
</svg>
