<svg width="448" height="96" viewBox="0 0 448 96" xmlns="http://www.w3.org/2000/svg">
    <g fill="none" fill-rule="evenodd">
        <path d="M400 25.5l4-4h-3V18h-2v3.5h-3l4 4zM392 15h16v2h-16v-2zm8-8.5l4 4h-3V14h-2v-3.5h-3l4-4zM373 23l-5-5-5 5-2-2 5-5-5-5 2-2 5 5 5-5 2 2-5 5 5 5-2 2z" fill="#000"/>
        <g fill="#000">
            <path d="M336 10h7v5h-7z"/>
            <path d="M329 10h5v2h-3v8h10v-3h2v5h-14V10z"/>
        </g>
        <path d="M329 42h7v5h7v7h-14V42z" fill="#000"/>
        <g stroke="#A0A0A0" fill="#FFF">
            <path d="M268.417 21.584c0 1.104-1.568 2-3.5 2-1.934 0-3.5-.896-3.5-2 0-1.105 1.566-2 3.5-2 1.932 0 3.5.895 3.5 2z" stroke-width="1.002"/>
            <path d="M275.89 17.55c0 1.144-1.87 2.07-4.172 2.07-2.304 0-4.172-.926-4.172-2.07 0-1.144 1.868-2.07 4.172-2.07 2.303 0 4.17.926 4.17 2.07z" stroke-width="1.376"/>
            <path d="M283 11c0 1.71-2.462 3.095-5.5 3.095S272 12.71 272 11c0-1.71 2.462-3.095 5.5-3.095S283 9.29 283 11z" stroke-width="1.832"/>
        </g>
        <g stroke="#A0A0A0" fill="#FFF">
            <path d="M295.583 53.584c0 1.105 1.568 2 3.5 2 1.934 0 3.5-.895 3.5-2s-1.566-2-3.5-2c-1.932 0-3.5.895-3.5 2z" stroke-width="1.002"/>
            <path d="M288.11 49.55c0 1.144 1.87 2.072 4.172 2.072 2.304 0 4.172-.928 4.172-2.072 0-1.143-1.868-2.07-4.172-2.07-2.303 0-4.17.927-4.17 2.07z" stroke-width="1.376"/>
            <path d="M281 43c0 1.71 2.462 3.095 5.5 3.095S292 44.71 292 43c0-1.71-2.462-3.094-5.5-3.094S281 41.29 281 43z" stroke-width="1.832"/>
        </g>
        <path d="M204 4s-5.056 12.797-6.25 15.623c-1.192 2.825.19 3.61 2.773 2.59C203.105 21.19 239 7 239 7V4l-38 15 6-15h-3z" fill="#A0A0A0"/>
        <path d="M201 19l6-15h32l-38 15z" fill="#FFF"/>
        <path d="M231 36s5.056 12.797 6.25 15.623c1.192 2.825-.19 3.61-2.773 2.59A287183.57 287183.57 0 0 0 196 39v-3l38 15-6-15h3z" fill="#A0A0A0"/>
        <path d="M234 51l-6-15h-32l38 15z" fill="#FFF"/>
        <path d="M186 48c0 5.523-4.477 10-10 10s-10-4.477-10-10 4.477-10 10-10 10 4.477 10 10z" fill="#2EAEDF"/>
        <path d="M170 49.5l4 4 7-7v-4l-7 7-2-2-2 2z" fill="#FFF"/>
        <g fill="#000">
            <path d="M169 9h7v2h-5v10h10v-5h2v7h-14V9z"/>
            <path d="M175 15.5l4.5-4.5-2-2h5.5v5.5l-2-2-4.5 4.5H175v-1.5z"/>
        </g>
        <path d="M109 55h6l4-4v-6l-4-4h-6l-4 4v6l4 4z" fill="#FFF"/>
        <path d="M109 23h6l4-4v-6l-4-4h-6l-4 4v6l4 4z" fill="#E81817"/>
        <path d="M151 73v5.5l-2-2-2.5 2.5-.656-.656L145 77.5l2.5-2.5-2-2h5.5zm-14 0h5.5l-2 2 2.5 2.5-1.5 1.5-2.5-2.5-2 2V73zm0 14v-5.5l2 2 2.5-2.5 1.5 1.5-2.5 2.5 2 2H137zm14 0h-5.5l2-2-2.5-2.5.656-.656.844-.844 2.5 2.5 2-2V87zM145 47v-5.5l2 2 2.5-2.5.656.656.844.844-2.5 2.5 2 2H145zm-2 0h-5.5l2-2-2.5-2.5 1.5-1.5 2.5 2.5 2-2V47zm0 2v5.5l-2-2-2.5 2.5-1.5-1.5 2.5-2.5-2-2h5.5zm2 0h5.5l-2 2 2.5 2.5-.656.656-.844.844-2.5-2.5-2 2V49z" fill="#FFF"/>
        <path d="M151 9v5.5l-2-2-2.5 2.5-.656-.656L145 13.5l2.5-2.5-2-2h5.5zm-14 0h5.5l-2 2 2.5 2.5-1.5 1.5-2.5-2.5-2 2V9zm0 14v-5.5l2 2 2.5-2.5 1.5 1.5-2.5 2.5 2 2H137zm14 0h-5.5l2-2-2.5-2.5.656-.656.844-.844 2.5 2.5 2-2V23z" fill="#000"/>
        <path d="M74 41l12 7-12 7V41z" fill="#FFF"/>
        <path d="M74 9l12 7-12 7V9z" fill="#FFDC00"/>
        <path d="M42 41h4v14h-4V41zm7 0h4v14h-4V41z" fill="#FFF"/>
        <path d="M42 9h4v14h-4V9zm7 0h4v14h-4V9z" fill="#FFDC00"/>
        <path d="M10 55V41h2v14h-2zm2-13s3-1 5 1 5 1 5 1v8s-3 1-5-1-5-1-5-1v-8z" fill="#FFF"/>
        <path d="M10 23V9h2v14h-2zm2-13s3-1 5 1 5 1 5 1v8s-3 1-5-1-5-1-5-1v-8z" fill="#3F8D14"/>
        <path d="M427.5 23H425v-2.5l11.5-11 2 2-11 11.5z" fill="#000"/>
    </g>
</svg>
